<svg xmlns="http://www.w3.org/2000/svg" xmlns:xlink="http://www.w3.org/1999/xlink" width="1080" zoomAndPan="magnify" viewBox="0 0 810 1012.49997" height="1350" preserveAspectRatio="xMidYMid meet" version="1.0"><defs><clipPath id="a92ac26e16"><path d="M 97.382812 294.570312 L 741 294.570312 L 741 800.570312 L 97.382812 800.570312 Z M 97.382812 294.570312 " clip-rule="nonzero"/></clipPath></defs><g clip-path="url(#a92ac26e16)"><path fill="#335156" d="M 713.792969 367.800781 C 691.339844 333.550781 656.054688 309.453125 614.445312 299.960938 C 498.828125 273.457031 438.710938 355.675781 427.84375 372.40625 C 423.898438 378.40625 414.367188 378.363281 410.464844 372.453125 C 401.0625 357.972656 354.976562 294.753906 268.144531 294.753906 C 254.40625 294.753906 239.648438 296.339844 223.839844 299.960938 C 182.230469 309.453125 146.945312 333.550781 124.488281 367.800781 C 101.933594 402.191406 82.859375 456.890625 112.773438 527.292969 L 231.339844 527.292969 L 257.636719 573.824219 L 314.359375 411.113281 L 381.929688 639.398438 L 422.847656 527.292969 L 488.199219 527.292969 C 492.824219 514.484375 505.039062 505.25 519.496094 505.25 C 537.898438 505.25 552.863281 520.132812 552.863281 538.429688 C 552.863281 556.722656 537.898438 571.605469 519.496094 571.605469 C 503.335938 571.605469 489.84375 560.128906 486.789062 544.945312 L 435.261719 544.945312 L 380.175781 695.898438 L 312.976562 468.875 L 261.464844 616.621094 L 220.976562 544.945312 L 121.085938 544.945312 C 159.316406 617.734375 225.382812 655.34375 289.285156 691.703125 C 343.609375 722.605469 395.234375 751.980469 419.140625 800.421875 C 443.0625 751.980469 494.675781 722.605469 549 691.703125 C 613.027344 655.273438 679.238281 617.597656 717.429688 544.53125 C 758.589844 465.773438 738.164062 404.953125 713.792969 367.800781 Z M 713.792969 367.800781 " fill-opacity="1" fill-rule="nonzero"/></g><path fill="#335156" d="M 535.140625 538.429688 C 535.140625 529.867188 528.125 522.902344 519.496094 522.902344 C 510.863281 522.902344 503.847656 529.867188 503.847656 538.429688 C 503.847656 546.988281 510.863281 553.953125 519.496094 553.953125 C 528.125 553.953125 535.140625 546.988281 535.140625 538.429688 Z M 535.140625 538.429688 " fill-opacity="1" fill-rule="nonzero"/></svg>