<svg xmlns="http://www.w3.org/2000/svg" xmlns:xlink="http://www.w3.org/1999/xlink" width="1800" zoomAndPan="magnify" viewBox="0 0 1350 1012.49997" height="1350" preserveAspectRatio="xMidYMid meet" version="1.0"><defs><clipPath id="82e339cdba"><path d="M 55.605469 286.878906 L 170.710938 286.878906 L 170.710938 725.117188 L 55.605469 725.117188 Z M 55.605469 286.878906 " clip-rule="nonzero"/></clipPath><clipPath id="6d700e7a5a"><path d="M 1179.28125 286.878906 L 1294.382812 286.878906 L 1294.382812 725.117188 L 1179.28125 725.117188 Z M 1179.28125 286.878906 " clip-rule="nonzero"/></clipPath></defs><g clip-path="url(#82e339cdba)"><path fill="#335156" d="M 55.605469 286.878906 L 55.605469 725.117188 L 170.3125 725.117188 L 170.3125 681 L 99.726562 681 L 99.726562 330.996094 L 170.3125 330.996094 L 170.3125 286.878906 L 55.605469 286.878906 " fill-opacity="1" fill-rule="nonzero"/></g><g clip-path="url(#6d700e7a5a)"><path fill="#335156" d="M 1179.675781 286.878906 L 1179.675781 330.996094 L 1250.265625 330.996094 L 1250.265625 681 L 1179.675781 681 L 1179.675781 725.117188 L 1294.382812 725.117188 L 1294.382812 286.878906 L 1179.675781 286.878906 " fill-opacity="1" fill-rule="nonzero"/></g><path fill="#65a2a6" d="M 450.355469 505.398438 C 450.355469 573.4375 395.199219 628.59375 327.160156 628.59375 C 259.121094 628.59375 203.964844 573.4375 203.964844 505.398438 C 203.964844 437.359375 259.121094 382.203125 327.160156 382.203125 C 395.199219 382.203125 450.355469 437.359375 450.355469 505.398438 " fill-opacity="1" fill-rule="nonzero"/><path fill="#335156" d="M 638.222656 489.675781 L 598.742188 489.675781 L 598.742188 434.027344 L 639.34375 434.027344 C 662.375 434.027344 673.949219 443.945312 673.949219 461.65625 C 673.949219 479.875 664.007812 489.675781 638.222656 489.675781 Z M 721.472656 456.335938 C 721.472656 422.699219 695.90625 396.539062 648.421875 396.539062 L 552.722656 396.539062 L 552.722656 614.335938 L 598.742188 614.335938 L 598.742188 527.164062 L 629.714844 527.164062 C 664.816406 527.164062 670.832031 538.433594 670.832031 562.246094 L 670.832031 565.429688 C 670.832031 588.558594 671.550781 604.859375 675.378906 614.335938 L 720.007812 614.335938 C 717.011719 604.136719 716.882812 587.457031 716.882812 572.8125 L 716.882812 562.058594 C 716.882812 523.078125 700.609375 511.84375 689.820312 507.867188 C 705.566406 501.382812 721.472656 485.5625 721.472656 456.335938 " fill-opacity="1" fill-rule="nonzero"/><path fill="#335156" d="M 809.113281 520.402344 L 913.269531 520.402344 L 913.269531 481.804688 L 809.113281 481.804688 L 809.113281 435.136719 L 917.847656 435.136719 L 917.847656 396.539062 L 763.414062 396.539062 L 763.414062 614.332031 L 918.421875 614.332031 L 924.011719 575.734375 L 809.113281 575.734375 L 809.113281 520.402344 " fill-opacity="1" fill-rule="nonzero"/><path fill="#335156" d="M 1098.65625 547.195312 C 1094.554688 559.902344 1084.847656 580.488281 1054.113281 580.488281 C 1012.03125 580.488281 999.015625 541.699219 999.015625 504.878906 C 999.015625 465.242188 1014.023438 430.308594 1052.855469 430.308594 C 1082.460938 430.308594 1094.144531 447.039062 1098.6875 463.828125 L 1145.78125 463.828125 C 1140.464844 427.425781 1112.347656 393.378906 1054.363281 393.378906 C 984.082031 393.378906 950.382812 446.882812 950.382812 506.585938 C 950.382812 568.542969 983.035156 617.417969 1052.09375 617.417969 C 1106.640625 617.417969 1137.269531 587.824219 1146.023438 547.195312 L 1098.65625 547.195312 " fill-opacity="1" fill-rule="nonzero"/></svg>