<svg xmlns="http://www.w3.org/2000/svg" xmlns:xlink="http://www.w3.org/1999/xlink" width="1080" zoomAndPan="magnify" viewBox="0 0 810 1012.49997" height="1350" preserveAspectRatio="xMidYMid meet" version="1.0"><defs><clipPath id="604f98df07"><path d="M 115 596 L 695.902344 596 L 695.902344 838 L 115 838 Z M 115 596 " clip-rule="nonzero"/></clipPath></defs><path fill="#335156" d="M 438.035156 628.65625 C 438.035156 628.65625 438.035156 285.691406 438.035156 285.691406 L 512.949219 360.605469 C 543.058594 389.800781 587.425781 345.628906 558.15625 315.394531 C 558.15625 315.394531 428.667969 185.90625 428.667969 185.90625 C 425.902344 183.136719 422.636719 181.171875 419.199219 179.613281 C 407.222656 174.3125 392.75 176.707031 383.457031 185.90625 L 253.96875 315.394531 C 233.613281 334.378906 249.207031 370.945312 276.574219 369.972656 C 284.753906 369.972656 292.9375 366.847656 299.179688 360.605469 L 374.09375 285.691406 L 374.09375 628.65625 C 374.742188 670.476562 437.308594 670.84375 438.035156 628.65625 Z M 438.035156 628.65625 " fill-opacity="1" fill-rule="nonzero"/><g clip-path="url(#604f98df07)"><path fill="#335156" d="M 115.113281 628.65625 L 115.113281 675.824219 C 115.113281 764.851562 187.550781 837.285156 276.574219 837.285156 L 535.550781 837.285156 C 624.578125 837.285156 697.011719 764.851562 697.011719 675.824219 L 697.011719 628.65625 C 697.011719 610.996094 682.691406 596.6875 665.042969 596.6875 C 647.390625 596.6875 633.070312 610.996094 633.070312 628.65625 L 633.070312 675.824219 C 633.070312 729.597656 589.316406 773.339844 535.550781 773.339844 L 276.574219 773.339844 C 222.808594 773.339844 179.058594 729.597656 179.058594 675.824219 L 179.058594 628.65625 C 179.058594 610.996094 164.738281 596.6875 147.085938 596.6875 C 129.433594 596.6875 115.113281 610.996094 115.113281 628.65625 Z M 115.113281 628.65625 " fill-opacity="1" fill-rule="nonzero"/></g></svg>