<svg xmlns="http://www.w3.org/2000/svg" xmlns:xlink="http://www.w3.org/1999/xlink" width="1080" zoomAndPan="magnify" viewBox="0 0 810 1012.49997" height="1350" preserveAspectRatio="xMidYMid meet" version="1.0"><defs><clipPath id="84cbf7f576"><path d="M 149 127.890625 L 664 127.890625 L 664 884.265625 L 149 884.265625 Z M 149 127.890625 " clip-rule="nonzero"/></clipPath><clipPath id="95fd8eccb3"><path d="M 489 127.890625 L 664 127.890625 L 664 316 L 489 316 Z M 489 127.890625 " clip-rule="nonzero"/></clipPath><clipPath id="4e1399f23b"><path d="M 500 127.890625 L 664 127.890625 L 664 304 L 500 304 Z M 500 127.890625 " clip-rule="nonzero"/></clipPath><clipPath id="1e33c47369"><path d="M 81.160156 641 L 731.839844 641 L 731.839844 830 L 81.160156 830 Z M 81.160156 641 " clip-rule="nonzero"/></clipPath></defs><g clip-path="url(#84cbf7f576)"><path fill="#dedfe1" d="M 613.113281 884.101562 L 199.558594 884.101562 C 171.496094 884.101562 149.339844 858.992188 149.339844 827.976562 L 149.339844 822.070312 C 149.339844 820.589844 150.816406 817.636719 153.773438 816.160156 L 153.773438 655.171875 C 150.816406 653.691406 149.339844 652.214844 149.339844 649.261719 L 149.339844 184.015625 C 149.339844 152.996094 171.496094 127.890625 199.558594 127.890625 L 508.246094 127.890625 C 512.675781 127.890625 515.632812 130.84375 515.632812 135.273438 C 515.632812 136.75 515.632812 138.226562 514.15625 139.703125 L 650.035156 291.832031 C 651.511719 290.355469 652.992188 288.878906 655.945312 288.878906 C 660.375 288.878906 663.328125 291.832031 663.328125 296.265625 L 663.328125 649.261719 C 663.328125 652.214844 661.851562 655.171875 657.421875 656.648438 L 657.421875 816.160156 C 661.851562 816.160156 663.328125 819.113281 663.328125 822.070312 L 663.328125 827.976562 C 663.328125 858.992188 641.175781 884.101562 613.113281 884.101562 Z M 613.113281 884.101562 " fill-opacity="1" fill-rule="evenodd"/></g><path fill="#b3b6b9" d="M 150.816406 841.269531 C 149.339844 836.839844 149.339844 832.40625 149.339844 827.976562 L 149.339844 822.070312 C 149.339844 820.589844 150.816406 817.636719 153.773438 816.160156 L 153.773438 655.171875 C 150.816406 653.691406 149.339844 652.214844 149.339844 649.261719 L 149.339844 630.0625 C 152.296875 630.0625 155.25 630.0625 158.203125 630.0625 L 654.46875 630.0625 C 657.421875 630.0625 660.375 630.0625 663.328125 630.0625 L 663.328125 649.261719 C 663.328125 652.214844 661.851562 655.171875 657.421875 656.648438 L 657.421875 816.160156 C 661.851562 816.160156 663.328125 819.113281 663.328125 822.070312 L 663.328125 827.976562 C 663.328125 832.40625 663.328125 836.839844 661.851562 841.269531 C 660.375 841.269531 657.421875 841.269531 654.46875 841.269531 L 158.203125 841.269531 C 155.25 841.269531 152.296875 841.269531 150.816406 841.269531 Z M 150.816406 841.269531 " fill-opacity="1" fill-rule="evenodd"/><g clip-path="url(#95fd8eccb3)"><path fill="#b3b6b9" d="M 490.523438 127.890625 L 508.246094 127.890625 C 512.675781 127.890625 515.632812 130.84375 515.632812 135.273438 C 515.632812 136.75 515.632812 138.226562 514.15625 139.703125 L 650.035156 291.832031 C 651.511719 290.355469 652.992188 288.878906 655.945312 288.878906 C 660.375 288.878906 663.328125 291.832031 663.328125 296.265625 L 663.328125 313.988281 C 661.851562 315.464844 658.898438 315.464844 655.945312 315.464844 L 528.925781 315.464844 C 506.769531 315.464844 489.046875 296.265625 489.046875 272.632812 L 489.046875 135.273438 C 489.046875 132.320312 489.046875 130.84375 490.523438 127.890625 Z M 490.523438 127.890625 " fill-opacity="1" fill-rule="evenodd"/></g><g clip-path="url(#4e1399f23b)"><path fill="#65a2a6" d="M 655.945312 303.648438 L 528.925781 303.648438 C 514.15625 303.648438 500.863281 290.355469 500.863281 272.632812 L 500.863281 135.273438 C 500.863281 132.320312 502.339844 129.367188 505.292969 127.890625 C 508.246094 127.890625 511.199219 127.890625 514.15625 130.84375 L 661.851562 290.355469 C 663.328125 291.832031 663.328125 293.308594 663.328125 296.265625 C 663.328125 300.695312 660.375 303.648438 655.945312 303.648438 Z M 655.945312 303.648438 " fill-opacity="1" fill-rule="evenodd"/></g><g clip-path="url(#1e33c47369)"><path fill="#65a2a6" d="M 654.46875 829.453125 L 158.203125 829.453125 C 115.371094 829.453125 81.398438 795.484375 81.398438 754.128906 L 81.398438 718.679688 C 81.398438 675.847656 115.371094 641.878906 158.203125 641.878906 L 654.46875 641.878906 C 697.300781 641.878906 731.269531 675.847656 731.269531 718.679688 L 731.269531 754.128906 C 731.269531 795.484375 697.300781 829.453125 654.46875 829.453125 Z M 654.46875 829.453125 " fill-opacity="1" fill-rule="evenodd"/></g><path fill="#414340" d="M 274.882812 497.132812 C 270.453125 497.132812 267.5 494.179688 267.5 489.75 L 267.5 454.300781 C 267.5 451.347656 270.453125 446.917969 274.882812 446.917969 C 279.316406 446.917969 282.269531 451.347656 282.269531 454.300781 L 282.269531 489.75 C 282.269531 494.179688 279.316406 497.132812 274.882812 497.132812 Z M 274.882812 497.132812 " fill-opacity="1" fill-rule="evenodd"/><path fill="#414340" d="M 311.808594 547.351562 C 308.855469 547.351562 304.421875 542.917969 304.421875 539.964844 L 304.421875 405.5625 C 304.421875 401.128906 308.855469 398.175781 311.808594 398.175781 C 316.238281 398.175781 319.195312 401.128906 319.195312 405.5625 L 319.195312 539.964844 C 319.195312 542.917969 316.238281 547.351562 311.808594 547.351562 Z M 311.808594 547.351562 " fill-opacity="1" fill-rule="evenodd"/><path fill="#414340" d="M 350.210938 575.414062 C 345.777344 575.414062 342.824219 572.460938 342.824219 568.027344 L 342.824219 377.5 C 342.824219 373.066406 345.777344 370.113281 350.210938 370.113281 C 354.640625 370.113281 357.59375 373.066406 357.59375 377.5 L 357.59375 568.027344 C 357.59375 572.460938 354.640625 575.414062 350.210938 575.414062 Z M 350.210938 575.414062 " fill-opacity="1" fill-rule="evenodd"/><path fill="#414340" d="M 387.132812 535.535156 C 382.703125 535.535156 379.75 532.582031 379.75 528.148438 L 379.75 417.375 C 379.75 412.945312 382.703125 409.992188 387.132812 409.992188 C 391.566406 409.992188 394.519531 412.945312 394.519531 417.375 L 394.519531 528.148438 C 394.519531 532.582031 391.566406 535.535156 387.132812 535.535156 Z M 387.132812 535.535156 " fill-opacity="1" fill-rule="evenodd"/><path fill="#414340" d="M 425.535156 516.335938 C 421.105469 516.335938 418.152344 511.902344 418.152344 508.949219 L 418.152344 436.578125 C 418.152344 432.144531 421.105469 429.191406 425.535156 429.191406 C 429.96875 429.191406 432.921875 432.144531 432.921875 436.578125 L 432.921875 508.949219 C 432.921875 511.902344 429.96875 516.335938 425.535156 516.335938 Z M 425.535156 516.335938 " fill-opacity="1" fill-rule="evenodd"/><path fill="#414340" d="M 462.460938 539.964844 C 458.03125 539.964844 455.074219 535.535156 455.074219 532.582031 L 455.074219 412.945312 C 455.074219 408.515625 458.03125 405.5625 462.460938 405.5625 C 466.890625 405.5625 469.84375 408.515625 469.84375 412.945312 L 469.84375 532.582031 C 469.84375 535.535156 466.890625 539.964844 462.460938 539.964844 Z M 462.460938 539.964844 " fill-opacity="1" fill-rule="evenodd"/><path fill="#414340" d="M 537.785156 497.132812 C 533.355469 497.132812 530.402344 494.179688 530.402344 489.75 L 530.402344 454.300781 C 530.402344 451.347656 533.355469 446.917969 537.785156 446.917969 C 542.21875 446.917969 545.171875 451.347656 545.171875 454.300781 L 545.171875 489.75 C 545.171875 494.179688 542.21875 497.132812 537.785156 497.132812 Z M 537.785156 497.132812 " fill-opacity="1" fill-rule="evenodd"/><path fill="#414340" d="M 500.863281 575.414062 C 496.429688 575.414062 493.476562 572.460938 493.476562 568.027344 L 493.476562 377.5 C 493.476562 373.066406 496.429688 370.113281 500.863281 370.113281 C 503.816406 370.113281 508.246094 373.066406 508.246094 377.5 L 508.246094 568.027344 C 508.246094 572.460938 503.816406 575.414062 500.863281 575.414062 Z M 500.863281 575.414062 " fill-opacity="1" fill-rule="evenodd"/><path fill="#fafcff" d="M 351.6875 801.390625 C 348.734375 801.390625 345.777344 799.914062 344.300781 796.960938 L 313.285156 730.496094 L 280.792969 796.960938 C 279.316406 799.914062 276.359375 801.390625 271.929688 799.914062 C 268.976562 799.914062 266.023438 796.960938 266.023438 794.007812 L 266.023438 678.800781 C 266.023438 674.371094 270.453125 671.417969 273.40625 671.417969 C 277.839844 671.417969 280.792969 674.371094 280.792969 678.800781 L 280.792969 761.511719 L 305.902344 709.816406 C 307.378906 706.863281 310.332031 705.386719 313.285156 705.386719 C 316.238281 705.386719 317.714844 706.863281 319.195312 709.816406 L 344.300781 761.511719 L 344.300781 678.800781 C 344.300781 674.371094 347.257812 671.417969 351.6875 671.417969 C 356.117188 671.417969 359.070312 674.371094 359.070312 678.800781 L 359.070312 794.007812 C 359.070312 796.960938 356.117188 799.914062 353.164062 799.914062 C 353.164062 801.390625 351.6875 801.390625 351.6875 801.390625 Z M 351.6875 801.390625 " fill-opacity="1" fill-rule="evenodd"/><path fill="#fafcff" d="M 508.246094 801.390625 C 503.816406 801.390625 500.863281 798.4375 500.863281 795.484375 L 469.84375 680.277344 C 468.367188 675.847656 471.324219 671.417969 474.277344 671.417969 C 478.707031 669.941406 483.136719 672.894531 484.613281 675.847656 L 508.246094 764.464844 L 531.878906 675.847656 C 531.878906 672.894531 536.308594 669.941406 540.738281 671.417969 C 545.171875 671.417969 546.648438 675.847656 545.171875 680.277344 L 514.15625 795.484375 C 514.15625 798.4375 511.199219 801.390625 508.246094 801.390625 Z M 508.246094 801.390625 " fill-opacity="1" fill-rule="evenodd"/><path fill="#fafcff" d="M 437.351562 761.511719 L 390.089844 761.511719 C 385.65625 761.511719 382.703125 758.558594 382.703125 754.128906 C 382.703125 749.695312 385.65625 746.742188 390.089844 746.742188 L 437.351562 746.742188 C 441.78125 746.742188 444.738281 749.695312 444.738281 754.128906 C 444.738281 758.558594 441.78125 761.511719 437.351562 761.511719 Z M 437.351562 761.511719 " fill-opacity="1" fill-rule="evenodd"/><path fill="#fafcff" d="M 378.273438 801.390625 C 376.796875 801.390625 376.796875 801.390625 375.320312 799.914062 C 372.363281 799.914062 369.410156 795.484375 370.886719 791.050781 L 407.8125 675.847656 C 407.8125 672.894531 410.765625 671.417969 413.71875 671.417969 C 418.152344 671.417969 419.628906 672.894531 421.105469 675.847656 L 458.03125 791.050781 C 458.03125 795.484375 456.550781 799.914062 452.121094 799.914062 C 449.167969 801.390625 444.738281 799.914062 443.257812 795.484375 L 413.71875 702.433594 L 385.65625 795.484375 C 384.179688 798.4375 381.226562 801.390625 378.273438 801.390625 Z M 378.273438 801.390625 " fill-opacity="1" fill-rule="evenodd"/></svg>